<?xml version="1.0" encoding="utf-8"?>
<!-- Generator: Adobe Illustrator 22.0.1, SVG Export Plug-In . SVG Version: 6.00 Build 0)  -->
<svg version="1.1" id="Layer_1" xmlns="http://www.w3.org/2000/svg" xmlns:xlink="http://www.w3.org/1999/xlink" x="0px" y="0px"
	 viewBox="0 0 229.1 41.1" style="enable-background:new 0 0 229.1 41.1;" xml:space="preserve">
<style type="text/css">
	.st0{fill:#999;}
</style>
<path class="st0" d="M79.9,23.7c4.1,0,7.2-1.7,9.3-5l-3.4-2.6c-1.2,2.2-3.1,3.3-5.6,3.3c-2.1,0-3.7-0.7-4.9-2.1
	c-1.2-1.3-1.8-3-1.8-5.1s0.7-3.8,2-5.1c1.2-1.2,2.8-1.9,4.6-1.9c1.2,0,2.3,0.2,3.3,0.6c1,0.4,1.7,1,2.1,1.6l3.1-3.1
	C86.9,2,84,0.8,80.1,0.8c-3.2,0-6,1.1-8.1,3.2c-2.2,2.2-3.3,4.9-3.3,8.1c0,3.4,1.1,6.2,3.2,8.3C73.7,22.6,76.5,23.7,79.9,23.7z
	 M54.2,18.2h6.7l2.3,5.1h5.3L57.5,0L46.6,23.3h5.3L54.2,18.2z M57.4,10.5l2,4.1h-3.9L57.4,10.5z M33.2,12.9l6.9,10.4h6.3l-7.1-9.6
	c1.3-0.3,2.4-0.9,3.2-1.9c0.9-1.1,1.4-2.5,1.4-4.2c0-2.2-0.8-3.8-2.4-5C40,1.5,38.1,1,35.6,1h-7.5v22.3h5L33.2,12.9L33.2,12.9z
	 M33.2,5.1h2.3c2.3,0,3.4,0.9,3.4,2.6c0,2-1.1,3-3.3,3h-2.3L33.2,5.1L33.2,5.1z M107.2,19.1h-8.7v-5.2h7.1v-4h-7.1V5h8V1h-13v22.3
	h13.7V19.1z M13.5,23.7c3.2,0,5.8-1.1,7.8-3.2s3-4.9,3-8.2h-11v3.8h5.9c-0.9,2.3-2.8,3.4-5.4,3.4c-2,0-3.6-0.7-4.9-2
	c-1.3-1.4-2-3.1-2-5.3c0-2,0.6-3.7,1.9-5c1.2-1.3,2.8-2,4.8-2c2.3,0,4.3,0.8,5.9,2.4l2.6-3.8c-2.4-2-5.2-3-8.4-3
	c-3.5,0-6.3,1.1-8.5,3.2s-3.3,4.9-3.3,8.2c0,3.4,1.1,6.2,3.3,8.3S10.1,23.7,13.5,23.7z M176.4,13.4l8.9,9.9h4.6l-8.8-9.5
	c4.2,0,6.8-2.7,6.8-6.5c0-4.3-3.4-6.3-7.3-6.3H173v22.3h3.4L176.4,13.4L176.4,13.4z M176.4,3.9h3.3c3.9,0,4.8,1.7,4.8,3.5
	s-1,3.9-4.7,3.9h-3.3V3.9H176.4z M199.2,23.7c2.5,0,6-0.7,8.7-4.1l-2.2-2.2c-2.3,3-4.9,3.4-6.3,3.4c-4.7,0-8.2-3.9-8.2-8.6
	c0-5,3.5-8.3,7.7-8.3c2.6,0,4.2,0.5,6.2,2.6l2.2-2.2c-2.2-2.5-5-3.5-8.2-3.5c-6.2,0-11.4,4.8-11.4,11.3
	C187.8,19,192.6,23.7,199.2,23.7z M160.8,23.6c6.5,0,9.4-4.7,9.4-9.4V1h-3.4v12.2c0,4.7-2.2,7.4-6,7.4s-6.2-2.7-6.2-7.4V1h-3.4v13.3
	C151.2,19.2,154.3,23.6,160.8,23.6z M120.7,23.7c2.5,0,6-0.7,8.7-4.1l-2.2-2.2c-2.3,3-4.9,3.4-6.3,3.4c-4.7,0-8.2-3.9-8.2-8.6
	c0-5,3.5-8.3,7.7-8.3c2.6,0,4.2,0.5,6.2,2.6l2.2-2.2c-2.2-2.5-5-3.5-8.2-3.5c-6.2,0-11.4,4.8-11.4,11.3
	C109.3,19,114.1,23.7,120.7,23.7z M223.5,1v9.5H212V1h-3.3v22.3h3.4v-10h11.5v10h3.4V1H223.5z M148.5,23.3V1h-3.4v9.5h-11.5V1h-3.4
	v22.3h3.4v-10h11.5v10H148.5z M146.5,39c0,0.5,0,0.8,0,1c0,0.3-0.1,0.6-0.4,1.1h1c0.3-0.3,0.4-0.4,0.5-0.8c0.2-0.3,0.3-0.5,0.3-1.2
	v-0.8h-1.3V39H146.5z M143.6,36.8l-5.7-5.7v8.6h1.3v-5.5l5.7,5.7v-8.6h-1.3V36.8z M108.2,35.9h3.4v-1.1h-3.4v-2.5h3.6v-1.1h-4.9v8.4
	h5.1v-1.1h-3.8L108.2,35.9L108.2,35.9z M35,31v8.7h1.3v-5.4l2.9,3.2l2.9-3.2v5.4h1.3V31l-4.1,4.6L35,31z M179.3,35.4
	c0.7-0.2,1.1-0.9,1.1-1.8c0-1.5-1-2.3-2.8-2.3h-2.3v8.4h2.7c2.2,0,2.9-1.1,2.9-2.3S180.2,35.5,179.3,35.4z M176.6,32.3h0.7
	c1.4,0,1.8,0.6,1.8,1.3c0,1-0.5,1.5-1.6,1.5h-1v-2.8H176.6z M177.9,38.7h-1.2v-2.6h1.1c1.5,0,1.9,0.6,1.9,1.4
	C179.6,38.3,179,38.7,177.9,38.7z M183.4,35.9h3.4v-1.1h-3.4v-2.5h3.6v-1.1h-4.9v8.4h5.1v-1.1h-3.8L183.4,35.9L183.4,35.9z
	 M134.7,35.9c0,1.8-0.8,2.8-2.2,2.8s-2.3-1-2.3-2.8v-4.6h-1.3v5c0,1.8,1.2,3.5,3.6,3.5c2.4,0,3.5-1.8,3.5-3.5v-5h-1.3V35.9z
	 M170.2,35.9h3.4v-1.1h-3.4v-2.5h3.6v-1.1h-4.9v8.4h5.1v-1.1h-3.8L170.2,35.9L170.2,35.9z M158.9,35.5c0-2.4-1.9-4.3-4.3-4.3
	c-2.4,0-4.3,1.9-4.3,4.3c0,2.5,1.9,4.3,4.3,4.3c0.8,0,1.6-0.2,2.2-0.6c0.6,0.4,1.2,0.6,1.8,0.6l1-0.9c-0.7,0-1.3-0.2-1.8-0.5
	C158.5,37.7,158.9,36.7,158.9,35.5z M156.7,37.7c-0.2-0.3-0.4-0.5-0.7-0.9l-0.9,0.8c0.2,0.3,0.4,0.6,0.6,0.8
	c-0.4,0.2-0.8,0.3-1.2,0.3c-1.6,0-3-1.5-3-3.2c0-1.9,1.3-3.2,3-3.2c1.6,0,3,1.3,3,3.2C157.6,36.3,157.2,37.1,156.7,37.7z
	 M165.8,35.9c0,1.8-0.8,2.8-2.2,2.8s-2.3-1-2.3-2.8v-4.6H160v5c0,1.8,1.2,3.5,3.6,3.5c2.4,0,3.5-1.8,3.5-3.5v-5h-1.3V35.9z
	 M81.7,39.7h1.4l1-2.5h2.6l1,2.5h1.4l-3.6-8.8L81.7,39.7z M84.3,36.1l0.9-2.3l1,2.3H84.3z M48.8,31.2c-2.4,0-4.3,1.9-4.3,4.3
	c0,2.5,1.9,4.3,4.3,4.3s4.3-1.9,4.3-4.3C53.1,33.1,51.3,31.2,48.8,31.2z M48.8,38.7c-1.6,0-3-1.5-3-3.2c0-1.9,1.3-3.2,3-3.2
	c1.6,0,3,1.3,3,3.2C51.8,37.2,50.4,38.7,48.8,38.7z M77.5,35.9h3.4v-1.1h-3.4v-2.5h3.6v-1.1h-4.9v8.4h5.1v-1.1h-3.8
	C77.5,38.5,77.5,35.9,77.5,35.9z M74.5,33.7c0-1.6-1.3-2.4-2.8-2.4h-2.9v8.4h1.3V36l3.3,3.7h1.7l-3.3-3.6
	C73.5,36.1,74.5,35.1,74.5,33.7z M70.1,35.2v-2.8h1.2c1.5,0,1.8,0.6,1.8,1.3s-0.4,1.5-1.8,1.5H70.1z M192,38.7
	c-1.8,0-3.1-1.5-3.1-3.2c0-1.9,1.3-3.1,2.9-3.1c1,0,1.6,0.2,2.3,1l0.8-0.8c-0.8-0.9-1.9-1.3-3.1-1.3c-2.3,0-4.3,1.8-4.3,4.3
	c0,2.6,1.8,4.3,4.3,4.3c1,0,2.3-0.3,3.3-1.6l-0.8-0.8C193.5,38.6,192.5,38.7,192,38.7z M91,31.3h-1.3v8.4h4.5v-1.1H91V31.3z
	 M102.6,36.8l-1.9-5.5h-1.4l3.2,9l3.6-9h-1.3L102.6,36.8z M94.7,39.7h1.1l3.2-8.4h-1.1L94.7,39.7z M118.9,33.7
	c0-1.6-1.3-2.4-2.8-2.4h-2.9v8.4h1.3V36l3.3,3.7h1.7l-3.3-3.6C118,36.1,118.9,35.1,118.9,33.7z M114.6,35.2v-2.8h1.2
	c1.5,0,1.8,0.6,1.8,1.3s-0.4,1.5-1.8,1.5H114.6z M60,36.8l-5.7-5.7v8.6h1.3v-5.5l5.7,5.7v-8.6H60V36.8z M122.8,31.3h-2.1v8.4h2.7
	c2.9,0,4.4-2.1,4.4-4C127.8,32.5,125.8,31.3,122.8,31.3z M123.3,38.6H122v-6.2h0.8c2.5,0,3.7,1.4,3.7,3.1
	C126.5,37.3,125.1,38.6,123.3,38.6z M62,32.4h2.4v7.3h1.3v-7.3h2.4v-1.1h-6v1.1H62z M0,35.4h31.9v-1.5H0V35.4z M197.2,35.4h31.9
	v-1.5h-31.9V35.4z"/>
</svg>
